<?xml version="1.0" encoding="UTF-8"?><svg id="Laag_1" xmlns="http://www.w3.org/2000/svg" viewBox="0 0 327.56 310.28"><defs><style>.cls-1{fill:#2d4829;}</style></defs><path class="cls-1" d="M186.77,143.83c-.19.64-1.08.72-1.36.11-1.78-3.86-3.15-7.91-4.94-11.76-10.21-21.97-27.04-40.11-45.89-54.99-.01-.01-.03-.02-.04-.03l-5.86-4.04c-.71-.49-.13-1.58.68-1.27,15.25,5.85,30.01,14.95,41.47,26.31.35.35.91.48,1.24.89l3.67,4.68c-2.12-1.94-11.94-7.74-14.38-6.04-1.39.97.69,3.86,1.57,4.69,3.69,3.46,8.9,6.2,12.82,10.08,3.53,3.49,12.44,15.51,12.82,20.18.09,1.13-.88,8.14-1.79,11.19ZM143.15,140.09l-3.91,2.45c-.67.42-1.44-.39-.98-1.03,1.68-2.36,3.45-5.25,2.17-6.55-3.31-3.36-18.67,5.56-19.41,4.86-.66-.62.53-.84.73-1,1.94-1.56,9.52-5.22,5.62-7.87-3.02-2.04-14.19-.32-18,.52-7.38,1.63-14.33,4.68-21.17,7.82-.78.36-1.42-.69-.76-1.23.97-.79,2.01-1.52,3.01-2.21,2.71-1.87,9.03-4.49,10.78-6.3,2.38-2.47,1.18-3.97-1.86-4.37-3.36-.45-12.36,1.24-16.1,1.94-2.85.54-5.69,1.34-8.45,2.22-.21-.96.21-.69.72-1.01,1.42-.89,3.18-1.28,4.59-2.03,1.4-.74,7.08-3.69,4.56-5.47-2.62-1.84-15.46,1.62-19.09,2.2-.41.07-1.35.41-1.26-.29,17.83-9.26,39.19-7.39,58.15-2.84,11.59,2.78,26.09,7.9,35.36,15.48.57.47,1.26,1.03,1.58,1.71-5.55-.77-11.17.61-16.21,2.94-.03.01-.06.03-.09.05ZM214.55,115.2c-.71-.16-2.62-.29-2.31-1.37,2.04-.32,3.6.55,5.43,1.17-.29,1.05-2.33.38-3.12.2ZM214.17,107.81c-1.99-.57,1-2.25,1.84-2.44,2.13-.48,5.27-.06,6.65,1.81.32.43.02,1.06-.52,1.12-2.13.24-7-.21-7.97-.49ZM237.36,106.75c-1.45-.58-5.53-3.06-6.64-3.02-.05,0-.3.38-.58.67-.25.26-.26.66-.04.94.84,1.05,2.53,2.87.66,2.19-1.91-.69-3.75-2.92-5.7-4.01-1.19-.66-2.57-1.19-3.92-1.66-.67-.23-.64-1.19.04-1.39,6.25-1.81,14.11.91,18.61,5.62.51.53-.01,1.4-.72,1.21-.58-.16-1.16-.33-1.71-.54ZM248.3,100.08c-.56-.39-2.75-1.86-4.19-2.43-.56-.22-1.13.32-.96.9.78,2.53,2.55,4.78,3.94,7,.21.33.82,1.01.27,1.28-3.32-3.11-7.2-5.51-11.11-7.78-.05-.03-.1-.05-.16-.07l-4.78-1.41c-.73-.22-.68-1.27.07-1.41,7.93-1.53,16.94-2.04,21.1,5.59.38.7-.46,1.42-1.09.93-1.23-.97-2.63-2.27-3.1-2.6ZM202.72,107.99c4.07-7.21,11.37-15.74,17.67-21.15.5-.43,2.73-2.27,3.09-2.36.52-.12.9.44.79.61-.03.04-.51-.16-.89.49-.2.35-.9,1.76-1.26,2.76-.18.49.21,1.02.73.97,3.42-.3,6.72-1.62,10.17-1.88,2.65-.2,6.26-.15,8.94-.02,7.99.38,16.27,2.27,22.95,6.77.68.46.18,1.53-.61,1.31-3.2-.9-6.36-1.97-9.64-2.53-21.78-3.72-45.36,3.58-55.43,24.35-.13.26-.35,1.51-.95.78-.47-.57,3.76-8.87,4.45-10.1ZM205.57,128.31c-2.01.63-4.01-.25-5.6-1.46-.07-.05-.34-.31-.62-.59-.37-.37-.24-.99.24-1.19,2.1-.85,3.35-1.17,5.63.6,1.29,1,2.24,2.04.35,2.63ZM188.17,167.58c.39,1.98-5.13,3.74-5.78,3.26-.08-.06-.69-1.59-.72-1.78-.29-2.36,6.24-2.82,6.5-1.48ZM193.21,235.66l-.13-1.47s0-.03,0-.05l-.58-24.3s0-.03,0-.05c-1.14-11.13,0-22.24.42-33.35,0-.06,0-.13-.02-.19-.12-.45-.2-.92-.25-1.38.87-3.49,3.34-5.63,2.85-11.14-.21-2.39-2.35-6.2.16-7.7,3.48-2.07,4.8.82,6.11,3.57.63.01.77-1.34.78-1.75.08-2.3-.48-4.41-2.37-5.79-1.07-.78-5.75-2.19-2.53-3.74,4.21-2.04,9.95.87,13.48,3.28,2.95,2.01,7.76,7.82,3.79.17-.02-.04-.04-.07-.06-.1-.86-1.24-3.29-3.13-3.78-4.29-.51-1.19,2.64,0,3.01.1,2.1.61,5.14,1.85,6.71,3.38,1.56,1.52,4.13,7.38,6.01,7.59,3,.33,1.82-3.98,1.33-6.66-.12-.63.6-1.09,1.12-.73,3.09,2.16,8.73,7.53,10.35,7.4,1.41-.11,1.07-3.02.97-4.09-.19-2.16-1.05-3.75-1.75-5.44-.63-1.5.06-2.2,1.57-1.57,4.18,1.75,6.83,5.03,8.94,9.12,1.31,2.54,2.15,7.79,5.15,8.48.44.1.84-.26.84-.71,0-2.6.09-5.36.43-7.91.05-.34.34-2.54,1.11-1.79.99.96,1.1,8.79,3.95,5.91.36-.36.97-.26,1.18.2l7.49,16.78c.48.11.9-.45,1.14-.79,1.3-1.81,1.03-8.74,1.41-11.4.06-.4.25-1.73.93-1.39,1.66.82,7.12,14.29,8.16,14.35.57.03.58-1.2.55-1.69-.28-4.11-3.61-12.03-5.46-15.91-.91-1.9-2.45-3.64-3.12-5.61-.24-.69.59-1.26,1.16-.8l6.49,5.37c1.73.85,6.86,14.15,8.27,7.48.76-3.6-3.68-13.73-5.55-17.19-11.23-20.77-36.34-27.42-58.57-24.78-3.3.39-9.51,2.65-12.28,1.7-2.8-.96-2.35-3.24-3.74-5.14-.67-.92-2.82-1.46-.62-2.32,2.37-.93,9.6-.66,12.11.1,2.58.79,9.81,6.14,7.64-.11-.03-.07-.06-.15-.11-.21l-4.95-6.67c-.31-.42-.09-1.04.42-1.15.47-.1.94-.27,1.39-.16,3.17.78,4.68,11.43,7.92,11.89.61.09,1.65-.51,1.62-1.2-.13-2.35-5.78-9.59-5.75-10.17.01-.27.64-.53.97-.59,4-.7,10.06,7.13,14.36,8.43.28.08.59-.02.76-.25.4-.55.27-1.28.03-1.97l-2.14-3.73c-.35-.61.28-1.32.92-1.03.56.25,1.11.54,1.66.82,1.5.79,7.96,5.79,10.5,6.37.45.1.91-.24.89-.7-.06-1.81-.8-3.44-1.46-5.09-.22-.54.27-1.11.84-.98l3.49.82c.38-.22.59-.43.6-.91.04-1.63-3.39-7.39-4.21-10.13-.18-.61.45-1.13,1.03-.85,3.74,1.82,7.2,4.66,9.98,7.65.71.76,2.05,3.12,3.17,3.97.39.3.97.09,1.11-.38.69-2.37-2.46-7.85-3.67-10.57-.27-.6.35-1.22.95-.95,4.12,1.8,10.74,4.64,7.24-2.41-5.46-10.99-24.41-16.04-35.78-15.26-.22-.89.17-.64.49-.89.93-.72,2.06-1.35,3.07-2.08.59-.43.23-1.37-.5-1.31-4.18.31-7.88,2.65-11.79,4.09-.68.25-1.27-.55-.83-1.13.35-.46.69-.88.82-1.02,1.24-1.46,3.2-3.44,4.86-4.27.16-.23-.48-.72-.94-.74-13.09-.48-27.62,15.78-33.68,26.1l-1.98,3.71c-.33.62-1.26.45-1.35-.24-3.3-23.24-11.73-45.5-22.82-66.05-.84-.98-2.4-1.13-2.82.25-.59,1.96,2.96,11.18,3.62,14.07.43,1.85,1.07,4.65,1.31,6.46.05.41.33,1.41-.34,1.31-5.96-10.63-14.37-21.31-23.48-29.5-1.37-1.23-5.4-4.94-7.03-5.04-.94-.05-1.92.71-1.67,1.67.14.54,5.65,5.98,6.54,7.07,1.09,1.33,2.23,2.82,3.24,4.37.47.71-.47,1.51-1.1.93-5.28-4.83-11.05-9.69-17.95-11.5-.78-.2-1.26.84-.6,1.3,3.01,2.13,6.09,4.16,8.86,6.62,6.02,5.35,10.17,12.01,15.51,17.48,3.4,3.49,4.91,1.83,6.36-1.69.18-.43.72-.59,1.09-.31,2.48,1.92,7.77,11.27,8.74,12.98,2.24,3.98,4.38,8.08,6.15,12.29,1.15.31.82-.97.79-1.76-.27-5.88-1.47-11.79-1.95-17.64.09-.13.48.23.58.39,1.27,1.9,3.83,9.01,4.75,11.55,3.62,9.91,9.38,30.8,8.59,40.99-.36,4.72-2.78,9.68-4.03,14.21-.38-.31-.67-.61-.87-1.07-2.88-6.72-4.21-13.95-8.18-20.54-8.96-14.86-25.65-24.87-40.64-32.71l2.63-.48c3.93-1.19,2.73-3.44.47-5.73-5.82-5.92-24.94-17.93-32.99-19.02-1.85-.25-4.61,0-6.6,0-.07,0-.69.63-.58.77,7.05,2.6,13.83,5.96,20.3,9.79,1.63.97,13.06,8.24,13.08,9.04.02,1.21-3.86-.35-4.56-.48-5.97-1.08-15.93-1.03-20.92-3.14-1.59-.67-3.53-2.37-5.11-2.57-3.39-.44-3.49,1.71-.96,3.6,5.53,4.14,13.65,8,19.74,12.09,26.68,17.91,48.14,41.81,59.86,72.06.06.15.16.28.3.36l3.95,2.34c.42.25.46.83.11,1.17-3.26,3.07.9,6.98-.97,9.82-.64.98-3.85,2.03-5.02,1.99-2.77-.11-6.01-4.29-4.1-6.43,1.03-1.15,2.55-1.08,2.52-3.34-.05-4.16-6.15-14.43-8.78-17.93-2.91-3.87-6.86-7.3-10.62-10.34-.71-.57-3.53-2.18-3.67-2.35-.04-.05-.14-.82.19-.77l11.34,5.2c.07.03.14.05.22.06l1.45.17c-.57-6.78-7.7-11.97-12.84-15.68-14.08-10.18-31.89-17.54-49.26-19.25-.1-.58.73-.48,1.16-.58,2.42-.56,11.02-.76,12.02-1.57.28-.22.47-.62.7-.97s.13-.8-.21-1.01c-4.21-2.57-9.86-3.41-14.69-3.96-9.39-1.07-20.44-1.26-28.86,3.44.11.68,2.02.43,2.54.4,7.27-.42,13.22-.54,20.51.41.42.05,1.81.15,1.79.73-6.6.65-13.61,2.63-19.67,5.37-1.66.75-7.76,3.35-7.08,5.64.19.64,2.09,1.42,2.83,1.4,2.14-.06,6.43-1.89,8.85-2.43,23.14-5.24,55.92,3.5,73.58,19.44.42.38,1.08.42.88,1.25-4.24-1.59-8.41-3.92-12.71-5.34-1.05-.35-3.27-1.15-4.22-1.24-1.46-.14-1.93.57-2.74.62-3.53.25-6.73-.39-10.7.24-.24.04-1.42.21-.88.67,4.66,2.92,10.23,3.97,15.21,6.14,3.86,1.68,8.21,4.19,11.74,6.51,3.92,2.57,8.21,5.63,11.12,9.49.51.67-.36,1.53-1.02,1.01-9.56-7.36-19.93-13.85-31.32-18-29.98-10.92-60.41-14.01-88.72,3.08-4.01,2.42-13.97,9.54-15.95,13.55-1.02,2.06-1.14,3.93,1.55,4.18,3.56.33,7.59-3.38,10.76-5.07,3.5-1.86,7.1-3.6,10.82-5,.79-.3,1.37.78.68,1.28l-6.15,4.42c-1.89,1.32-8.12,6.9-6.28,9.31.35.46.73.54,1.29.48,1.76-.18,6.79-4.06,8.83-5.18,10.02-5.51,20.28-8.56,31.38-10.52.79-.14,1.2.92.51,1.34-1.1.67-2.23,1.32-3.29,2.08-3.97,2.88-7.74,6.7-10.95,10.4-2.41,2.78-9.95,12.3-10.59,15.42-.49,2.43,1.11,3.79,3.43,3.03,1.21-.39,7.01-7.22,8.7-8.76,11.96-10.85,28.1-19.27,44.3-21.43.73-.1,1.14.82.56,1.29-4.64,3.75-9.48,7.58-12.75,12.66-1.69,2.62-4.08,8.67,1.44,6.09,3.36-1.57,7.84-5.18,11.42-7.2,3.64-2.05,10.73-6.14,14.44-7.3.2-.06.63-.11.57.19-2.08,2.08-3.83,4.52-5.44,6.98-1.5,2.29-5.49,8.23-4.59,10.81.17.48.89.91,1.36.95,1.53.12,6.79-5.55,8.49-6.88,12.06-9.46,30.23-16.03,41.34-2.19.41.51.02,1.26-.63,1.19-1.61-.17-3.82-.73-3.65,2.31.12,2.17,3.64,3.19,4.44,5.16.03.06.04.13.05.2,1.13,7.26,1.96,14.56,2.61,21.88,1.09,18.21,1.77,36.49,2.7,54.73l.49,6.31s0,.06,0,.09c-.18,3.06-.3,6.13-.45,9.19,0,.04,0,.08,0,.12.33,2.36.38,5.59.45,9.98l.81,14.93c-.12,1.34.03,2.68.28,4,.47,2.57-.03,6.79,3.41,6.27,3.01-.46.28-4.24.63-6.48l-1.71-43.16c-.75-18.73-1.52-37.45-2.19-56.18-.02-.66-.13-1.4-.16-2.11-.01-.3.17-.57.45-.69l4.26-1.8c.26-.11.57-.06.78.13.4.38.57.88.6,1.43-.04.49-.08,1.03-.13,1.63,0,.02,0,.03,0,.05-.08.51-.17,1.02-.18,1.48-.01.36-.03.73-.05,1.09-.04.39-.07.79-.11,1.2.02,0,.04,0,.06,0-.24,6.18.76,3.32.51,9.27l.06.31c.31.84-.3,8.01-.02,9.07,0,0,.08.39.08.39,0,11.4.04,22.79-.04,34.19,0,.02,0,.03,0,.05l2.66,42.92s0,.06.01.09c.66,3.08.09,6.8,3.87,8.54.45.21.96-.09,1.03-.58.59-4.02-.91-7.64-1.36-11.28-.23-1.89-.24-3.22.22-4.13.08-.16.11-.33.07-.51-.57-2.34-.81-4.69-.85-7.04,0-.02,0-.04,0-.07-.12-.78-.18-1.57-.19-2.37,0-.05,0-.1-.02-.15-.68-2.45-.65-6.24-.63-12.06l-.69-12.86ZM262.55,136.48c-.69-.22-1.25.55-.81,1.13,5.26,6.86,8.32,16.29,7.52,24.87-.03.37-.34,3.52-1.11,2.57-1.23-7.31-2.28-14.91-6.67-21.09-1.34-1.88-3.31-4.48-5.62-5.38-.61-.24-1.21.4-.93.99.63,1.32,1.82,3.4,2.61,5.2.35.79-.73,1.41-1.25.73-3.05-4.08-7.91-10.94-10.17-11.43-.68-.15-2.1-.25-2,.83.06.66,1.81,3.76,2.19,4.81.31.86.62,1.74.91,2.62.27.83-.9,1.34-1.33.58-.59-1.06-1.2-2.12-2.01-3.1-.89-1.08-5.95-6.2-7-6.1-1.63.15-.38,4,.69,5.92.3.53-.15,1.21-.75,1.07-1.14-.25-2.08-1.29-3.03-2.06-.83-.68-2.94-3.71-3.91-2.33-.66.95.84,2.07-.37,1.95-1.58-.79-4.46-5.11-6.44-3.71-1.26.89,1.62,7.09,2.05,8.49.22.71.57.82-.28,1.43l-4.17-4.86s-.05-.06-.09-.08c-3.24-2.66-7.47-6.76-12.03-5.13-.42.15-.93.18-.99.75,3.11,1.5,6.58,3.58,9.01,6.25.52.57-.1,1.45-.82,1.16-1.17-.48-2.3-1-3.78-1.16-8.01-.86-11.81.33-18.89,3.14-.38.15-1.19.62-1.44.12.99-1.97,2.44-3.09,4.14-4.4,13.37-10.33,30.58-13.88,47.24-12.05,12.35,1.36,28.54,7.17,33.23,19.74-3.91-4.43-7.95-9.6-13.74-11.49Z"/><path class="cls-1" d="M178.67,94.8c2.14,4.15,3.75,8.75,5.82,12.81.23.45.36,1.07.96,1.17-.39-6.78-3.33-13.46-6.39-19.41-8.22-15.98-20.5-32.24-34.79-43.22-3.63-2.79-7.97-5.9-12.57-6.9-.74-.16-1.2.82-.6,1.29,3.74,2.91,7.98,5.26,11.66,8.28,14.72,12.1,27.18,29.1,35.91,45.98Z"/></svg>